<?xml version="1.0" encoding="iso-8859-1"?>
<!-- Generator: Adobe Illustrator 19.0.0, SVG Export Plug-In . SVG Version: 6.00 Build 0)  -->
<svg version="1.1" id="Capa_1" xmlns="http://www.w3.org/2000/svg" xmlns:xlink="http://www.w3.org/1999/xlink" x="0px" y="0px"
	 viewBox="0 0 490 490" style="enable-background:new 0 0 490 490;" xml:space="preserve">
<path id="XMLID_1465_" d="M447.022,74.021C419.171,45.634,382.118,30,342.69,30c-36.367,0-70.72,13.304-97.69,37.648
	C218.03,43.304,183.679,30,147.31,30C107.882,30,70.83,45.634,42.978,74.022c-57.304,58.406-57.304,153.441,0.001,211.849
	c1.365,1.391,148.838,151.702,148.838,151.702C206.006,452.035,224.893,460,245,460c20.107,0,38.994-7.965,53.182-22.427
	l148.84-151.704C504.326,227.463,504.326,132.428,447.022,74.021z M229.994,305v122.385c-6.224-2.249-11.934-5.909-16.751-10.818
	L64.404,264.863c-45.94-46.824-45.94-123.012,0-169.836C86.566,72.439,116.009,60,147.31,60c31.196,0,60.549,12.358,82.684,34.802
	V170h-15.006c-24.822,0-45.017,20.187-45.017,45s20.195,45,45.017,45h60.023c8.275,0,15.006,6.729,15.006,15s-6.731,15-15.006,15
	H245C236.713,290,229.994,296.716,229.994,305z M425.597,264.862c-1.365,1.391-148.841,151.705-148.842,151.705
	c-4.816,4.909-10.525,8.569-16.75,10.818V320h15.006c24.823,0,45.017-20.187,45.017-45s-20.194-45-45.017-45h-60.023
	c-8.274,0-15.006-6.729-15.006-15s6.732-15,15.006-15H245c8.287,0,15.006-6.716,15.006-15V94.802
	C282.141,72.358,311.494,60,342.69,60c31.301,0,60.744,12.44,82.905,35.028C471.535,141.852,471.535,218.04,425.597,264.862z"/>
<g>
</g>
<g>
</g>
<g>
</g>
<g>
</g>
<g>
</g>
<g>
</g>
<g>
</g>
<g>
</g>
<g>
</g>
<g>
</g>
<g>
</g>
<g>
</g>
<g>
</g>
<g>
</g>
<g>
</g>
</svg>
