<?xml version="1.0" encoding="iso-8859-1"?>
<!-- Generator: Adobe Illustrator 19.0.0, SVG Export Plug-In . SVG Version: 6.00 Build 0)  -->
<svg version="1.1" id="Layer_1" xmlns="http://www.w3.org/2000/svg" xmlns:xlink="http://www.w3.org/1999/xlink" x="0px" y="0px"
	 viewBox="0 0 512 512" style="enable-background:new 0 0 512 512;" xml:space="preserve">
<g>
	<g>
		<g>
			<rect x="276.488" y="406.352" width="43.052" height="97.89"/>
			<path d="M491.512,185.528h-42.911V28.241c0-11.315-9.173-20.488-20.488-20.488H83.886c-11.315,0-20.488,9.173-20.488,20.488
				v157.287H20.488C9.173,185.528,0,194.701,0,206.016v277.744c0,11.315,9.173,20.488,20.488,20.488h131.004V385.862
				c0-11.315,9.173-20.488,20.488-20.488h168.042c11.315,0,20.488,9.173,20.488,20.488v118.385h131.004
				c11.315,0,20.488-9.173,20.488-20.488V206.016C512,194.701,502.828,185.528,491.512,185.528z M290.703,137.617h-14.214v14.216
				c0,11.315-9.173,20.488-20.488,20.488s-20.488-9.173-20.488-20.488v-14.216h-14.216c-11.315,0-20.488-9.173-20.488-20.488
				c0-11.315,9.172-20.488,20.486-20.488h14.216V82.425c0-11.315,9.173-20.488,20.488-20.488c11.315,0,20.488,9.173,20.488,20.488
				v14.216h14.216c11.315,0,20.488,9.173,20.488,20.488C311.19,128.444,302.017,137.617,290.703,137.617z"/>
			<rect x="192.461" y="406.352" width="43.041" height="97.89"/>
		</g>
	</g>
</g>
<g>
</g>
<g>
</g>
<g>
</g>
<g>
</g>
<g>
</g>
<g>
</g>
<g>
</g>
<g>
</g>
<g>
</g>
<g>
</g>
<g>
</g>
<g>
</g>
<g>
</g>
<g>
</g>
<g>
</g>
</svg>
