<?xml version='1.0' encoding='iso-8859-1'?>
<svg version="1.1" xmlns="http://www.w3.org/2000/svg" viewBox="0 0 490 490" xmlns:xlink="http://www.w3.org/1999/xlink" enable-background="new 0 0 490 490">
  <path d="m475,115.001h-460c-8.284,0-15,6.716-15,15s6.716,15 15,15h14.012v214.998c0,8.284 6.716,15 15,15s15-6.716 15-15v-65h370.989v65c0,8.284 6.716,15 15,15s15-6.716 15-15v-214.998h14.999c8.284,0 15-6.716 15-15s-6.716-15-15-15zm-44.999,149.998h-370.989v-60.002h370.989v60.002zm0-90.003h-370.989v-29.995h370.989v29.995z"/>
</svg>
